# Blender v2.78 (sub 0) OBJ File: ''
# www.blender.org
mtllib 0_semetrie.mtl
o Cube_Cube.003
v -0.419127 0.982854 0.985392
v -0.990000 -1.000000 1.000000
v -0.990000 -0.631820 0.414518
v -0.990000 -1.000000 0.230428
v -0.419127 -1.000000 -0.006035
v -0.433735 0.941537 1.000000
v -0.419127 0.953638 1.000000
v -0.990000 -0.158891 0.985391
v -0.990000 -0.170993 1.000000
v 0.281918 -1.000000 0.284347
v 0.572300 -1.000000 0.985392
v -0.404519 0.941537 1.000000
v 0.566249 -1.000000 1.000000
vn -0.3474 0.4194 0.8387
vn -0.8387 0.4194 0.3474
vn -0.8387 0.4194 -0.3474
vn -0.3474 0.4194 -0.8387
vn -1.0000 0.0000 0.0000
vn 0.0000 0.0000 1.0000
vn 0.3474 0.4194 -0.8387
vn 0.8387 0.4194 0.3474
vn 0.8387 0.4194 -0.3474
vn 0.3474 0.4194 0.8387
vn 0.0000 -1.0000 0.0000
usemtl None
s off
f 1//1 6//1 7//1
f 1//2 8//2 9//2 6//2
f 1//3 3//3 8//3
f 1//4 5//4 4//4 3//4
f 2//5 9//5 8//5 3//5 4//5
f 13//6 12//6 7//6 6//6 9//6 2//6
f 10//7 5//7 1//7
f 12//8 13//8 11//8 1//8
f 11//9 10//9 1//9
f 7//10 12//10 1//10
f 4//11 5//11 10//11 11//11 13//11 2//11
